<mxfile host="app.diagrams.net" modified="2022-02-13T04:23:36.496Z" agent="5.0 (Macintosh)" etag="u5FBHExunW7U1FGA0NWj" version="16.5.6" type="github">
  <diagram id="cvmp1-V0N3pFp7CAeT3K" name="Page-1">
    <mxGraphModel dx="942" dy="574" grid="1" gridSize="10" guides="1" tooltips="1" connect="1" arrows="1" fold="1" page="1" pageScale="1" pageWidth="850" pageHeight="1100" math="0" shadow="0">
      <root>
        <mxCell id="0" />
        <mxCell id="1" parent="0" />
        <mxCell id="owE2RgjQQhzwkLlDv5GW-3" value="&lt;div align=&quot;left&quot;&gt;&lt;b style=&quot;font-size: 23px&quot;&gt;&lt;font style=&quot;font-size: 23px&quot; face=&quot;Garamond&quot;&gt;My Summer Program Planner &amp;nbsp;&lt;span style=&quot;white-space: pre&quot;&gt;&amp;nbsp;&lt;/span&gt;&lt;span style=&quot;white-space: pre&quot;&gt;&lt;/span&gt;&lt;span style=&quot;white-space: pre&quot;&gt;&lt;/span&gt;&lt;span style=&quot;white-space: pre&quot;&gt;&lt;/span&gt;&lt;span style=&quot;white-space: pre&quot;&gt;&lt;/span&gt;&lt;span style=&quot;white-space: pre&quot;&gt;&lt;/span&gt;&lt;span style=&quot;white-space: pre&quot;&gt;&lt;/span&gt;&lt;span style=&quot;white-space: pre&quot;&gt;	&lt;/span&gt;&lt;span style=&quot;white-space: pre&quot;&gt;	&lt;/span&gt;&lt;span style=&quot;white-space: pre&quot;&gt;	&lt;/span&gt;&lt;span style=&quot;white-space: pre&quot;&gt;	&lt;/span&gt;&lt;span style=&quot;white-space: pre&quot;&gt;	&lt;/span&gt;&lt;span style=&quot;white-space: pre&quot;&gt;	&lt;/span&gt;&lt;span style=&quot;white-space: pre&quot;&gt;	&lt;/span&gt;Login &amp;nbsp; &amp;nbsp; Sign Up &lt;/font&gt;&lt;/b&gt;&lt;br&gt;&lt;/div&gt;" style="rounded=1;whiteSpace=wrap;html=1;fontFamily=Verdana;align=left;labelBackgroundColor=none;labelBorderColor=none;fillColor=#fa6800;strokeColor=#C73500;fontColor=#000099;" parent="1" vertex="1">
          <mxGeometry x="20" y="10" width="820" height="30" as="geometry" />
        </mxCell>
        <mxCell id="owE2RgjQQhzwkLlDv5GW-10" value="" style="rounded=0;whiteSpace=wrap;html=1;labelBackgroundColor=none;labelBorderColor=none;fontFamily=Garamond;fontSize=23;fontColor=#000099;" parent="1" vertex="1">
          <mxGeometry x="15" y="80" width="820" height="360" as="geometry" />
        </mxCell>
        <mxCell id="owE2RgjQQhzwkLlDv5GW-14" value="Actor" style="shape=umlActor;verticalLabelPosition=bottom;verticalAlign=top;html=1;outlineConnect=0;labelBackgroundColor=#000099;labelBorderColor=none;fontFamily=Garamond;fontSize=23;fontColor=#000099;fillColor=#000066;" parent="1" vertex="1">
          <mxGeometry x="440" y="80" width="80" height="140" as="geometry" />
        </mxCell>
        <mxCell id="owE2RgjQQhzwkLlDv5GW-15" value="Actor" style="shape=umlActor;verticalLabelPosition=bottom;verticalAlign=top;html=1;outlineConnect=0;labelBackgroundColor=#000099;labelBorderColor=none;fontFamily=Garamond;fontSize=23;fontColor=#000099;fillColor=#000066;" parent="1" vertex="1">
          <mxGeometry x="650" y="80" width="80" height="130" as="geometry" />
        </mxCell>
        <mxCell id="owE2RgjQQhzwkLlDv5GW-16" value="Actor" style="shape=umlActor;verticalLabelPosition=bottom;verticalAlign=top;html=1;outlineConnect=0;labelBackgroundColor=#000099;labelBorderColor=none;fontFamily=Garamond;fontSize=23;fontColor=#000099;fillColor=#000066;" parent="1" vertex="1">
          <mxGeometry x="410" y="190" width="80" height="130" as="geometry" />
        </mxCell>
        <mxCell id="owE2RgjQQhzwkLlDv5GW-17" value="Actor" style="shape=umlActor;verticalLabelPosition=bottom;verticalAlign=top;html=1;outlineConnect=0;labelBackgroundColor=#000099;labelBorderColor=none;fontFamily=Garamond;fontSize=23;fontColor=#000099;fillColor=#000066;" parent="1" vertex="1">
          <mxGeometry x="560" y="120" width="80" height="130" as="geometry" />
        </mxCell>
        <mxCell id="owE2RgjQQhzwkLlDv5GW-18" value="Actor" style="shape=umlActor;verticalLabelPosition=bottom;verticalAlign=top;html=1;outlineConnect=0;labelBackgroundColor=#000099;labelBorderColor=none;fontFamily=Garamond;fontSize=23;fontColor=#000099;fillColor=#000066;" parent="1" vertex="1">
          <mxGeometry x="690" y="150" width="80" height="130" as="geometry" />
        </mxCell>
        <mxCell id="owE2RgjQQhzwkLlDv5GW-24" value="&lt;font&gt;&lt;span style=&quot;&quot;&gt;Thanks Mom and Dad!&lt;/span&gt;&lt;/font&gt;&lt;br&gt;&lt;span style=&quot;&quot;&gt;&lt;/span&gt;" style="shape=callout;whiteSpace=wrap;html=1;perimeter=calloutPerimeter;labelBackgroundColor=none;labelBorderColor=none;fontFamily=Garamond;fontSize=23;fontColor=#000000;fillColor=#FFFFFF;strokeColor=default;" parent="1" vertex="1">
          <mxGeometry x="485" y="110" width="105" height="110" as="geometry" />
        </mxCell>
        <mxCell id="hEebd_EvV0rgedwFuuHm-7" value="Select Program By:" style="text;html=1;strokeColor=none;fillColor=none;align=center;verticalAlign=middle;whiteSpace=wrap;rounded=0;fontFamily=Lucida Console;fontSize=17;" vertex="1" parent="1">
          <mxGeometry x="10" y="40" width="160" height="40" as="geometry" />
        </mxCell>
        <mxCell id="hEebd_EvV0rgedwFuuHm-8" value="Type" style="text;html=1;strokeColor=none;fillColor=none;align=center;verticalAlign=middle;whiteSpace=wrap;rounded=0;fontFamily=Lucida Console;fontSize=17;" vertex="1" parent="1">
          <mxGeometry x="160" y="45" width="60" height="30" as="geometry" />
        </mxCell>
        <mxCell id="hEebd_EvV0rgedwFuuHm-9" value="Date" style="text;html=1;strokeColor=none;fillColor=none;align=center;verticalAlign=middle;whiteSpace=wrap;rounded=0;fontFamily=Lucida Console;fontSize=17;" vertex="1" parent="1">
          <mxGeometry x="210" y="45" width="60" height="30" as="geometry" />
        </mxCell>
        <mxCell id="hEebd_EvV0rgedwFuuHm-10" value="Gender" style="text;html=1;strokeColor=none;fillColor=none;align=center;verticalAlign=middle;whiteSpace=wrap;rounded=0;fontFamily=Lucida Console;fontSize=17;" vertex="1" parent="1">
          <mxGeometry x="270" y="45" width="60" height="30" as="geometry" />
        </mxCell>
        <mxCell id="hEebd_EvV0rgedwFuuHm-11" value="Age/Grade" style="text;html=1;strokeColor=none;fillColor=none;align=center;verticalAlign=middle;whiteSpace=wrap;rounded=0;fontFamily=Lucida Console;fontSize=17;" vertex="1" parent="1">
          <mxGeometry x="350" y="45" width="60" height="30" as="geometry" />
        </mxCell>
      </root>
    </mxGraphModel>
  </diagram>
</mxfile>
